<?xml version="1.0" standalone="no"?>
<!DOCTYPE svg PUBLIC "-//W3C//DTD SVG 20010904//EN"
 "http://www.w3.org/TR/2001/REC-SVG-20010904/DTD/svg10.dtd">
<svg version="1.0" xmlns="http://www.w3.org/2000/svg"
 width="2272.000000pt" height="2110.000000pt" viewBox="0 0 2272.000000 2110.000000"
 preserveAspectRatio="xMidYMid meet">
<metadata>
Created by potrace 1.16, written by Peter Selinger 2001-2019
</metadata>
<g transform="translate(0.000000,2110.000000) scale(0.100000,-0.100000)"
fill="#000000" stroke="none">
<path d="M10820 21094 c-30 -2 -136 -8 -235 -14 -2605 -157 -5131 -1186 -7040
-2867 -1951 -1719 -3184 -4020 -3480 -6498 l-25 -210 0 -955 0 -955 25 -210
c391 -3271 2406 -6188 5446 -7884 206 -116 641 -335 864 -436 1195 -542 2510
-891 3830 -1015 442 -41 540 -45 1155 -45 615 0 713 4 1155 45 2487 234 4844
1238 6660 2837 2029 1787 3272 4188 3510 6783 27 293 35 497 35 880 0 206 -5
452 -10 545 -67 1139 -321 2238 -760 3285 -1196 2848 -3655 5071 -6755 6105
-966 323 -1908 507 -3040 596 -131 10 -1214 21 -1335 13z m-5110 -6314 c303
-13 506 -49 765 -135 148 -49 388 -166 510 -250 116 -79 280 -212 346 -282
404 -425 654 -1015 690 -1628 6 -106 9 -900 7 -2105 -3 -1794 -5 -1944 -21
-2055 -57 -383 -199 -775 -382 -1054 -127 -195 -265 -357 -404 -475 -379 -322
-785 -489 -1351 -557 -64 -8 -521 -13 -1417 -16 l-1323 -5 0 4286 0 4286 1188
0 c653 0 1279 -5 1392 -10z m7540 -755 l0 -765 -1380 0 -1380 0 0 -995 0 -995
840 0 840 0 0 -765 0 -765 -840 0 -840 0 0 -1000 0 -1000 1380 0 1380 0 0
-760 0 -760 -1702 2 -1703 3 -98 27 c-376 104 -651 379 -755 756 l-27 97 -3
3355 c-2 3665 -6 3431 53 3611 130 392 476 667 895 709 41 4 810 8 1708 9
l1632 1 0 -765z m3364 -2172 c423 -1616 771 -2944 775 -2950 4 -7 348 1300
766 2905 417 1604 763 2932 767 2950 l9 32 838 0 837 0 -997 -3754 -996 -3755
-76 -153 c-121 -245 -288 -483 -435 -619 -77 -71 -235 -178 -314 -213 -151
-67 -303 -92 -456 -77 -434 45 -836 390 -1110 954 -48 98 -99 283 -1042 3828
-545 2048 -995 3739 -1000 3757 l-8 32 837 0 837 0 768 -2937z"/>
<path d="M4760 10481 l0 -2711 486 0 c452 0 493 1 587 21 124 25 220 64 333
135 207 130 306 253 371 461 l28 88 0 1995 c0 1919 -1 1998 -19 2070 -24 96
-72 203 -123 272 -108 145 -321 285 -533 349 -73 22 -88 23 -602 27 l-528 3 0
-2710z"/>
</g>
</svg>
