<?xml version="1.0" encoding="UTF-8"?>
<svg xmlns="http://www.w3.org/2000/svg" xmlns:xlink="http://www.w3.org/1999/xlink" width="240pt" height="240pt" viewBox="0 0 240 240" version="1.1">
<g id="surface2035837">
<path style=" stroke:none;fill-rule:nonzero;fill:rgb(25.490196%,72.156863%,51.372549%);fill-opacity:1;" d="M 119.933594 85 L 93.671875 40 L 14.871094 40 L 119.933594 220 L 225 40 L 146.199219 40 Z M 119.933594 85 "/>
<path style=" stroke:none;fill-rule:nonzero;fill:rgb(20.784314%,28.627451%,36.862745%);fill-opacity:1;" d="M 146.199219 40 L 119.933594 85 L 93.671875 40 L 55.730469 40 L 119.933594 150 L 184.140625 40 Z M 146.199219 40 "/>
<path style=" stroke:none;fill-rule:nonzero;fill:rgb(26.27451%,62.745098%,27.843137%);fill-opacity:1;" d="M 240 190 C 240 217.5 217.5 240 190 240 C 162.5 240 140 217.5 140 190 C 140 162.5 162.5 140 190 140 C 217.5 140 240 162.5 240 190 "/>
<path style=" stroke:none;fill-rule:nonzero;fill:rgb(100%,100%,100%);fill-opacity:1;" d="M 220 180 L 200 180 L 200 160 L 180 160 L 180 180 L 160 180 L 160 200 L 180 200 L 180 220 L 200 220 L 200 200 L 220 200 Z M 220 180 "/>
</g>
</svg>
